# xmcd CD database file
#
# Track frame offsets:
#	150
#	10598
#	22081
#	40554
#	51325
#	60693
#	72214
#	87965
#	102906
#	116632
#	129285
#
# Disc length: 1891 seconds
#
# Revision: 0
# Processed by: cddbd v1.5.1PL0 Copyright (c) Steve Scherf et al.
# Submitted via: CDex 1.51
#
DISCID=8907610b
DTITLE=Bobby Bare - Me and McDill
DYEAR=1977
DGENRE=Country
TTITLE0=If You Think I'm Crazy Now
TTITLE1=Hillbilly Hell
TTITLE2=Don't Think You're Too Good for Country Music
TTITLE3=Till I Get on My Feet
TTITLE4=Don't Turn Out the Light
TTITLE5=Wilma Lou
TTITLE6=Look Who I'm Cheating on Tonight
TTITLE7=You Made a Believer Out of Me
TTITLE8=Woman in Every Man's Life
TTITLE9=Can't Seem to Get Nowhere
TTITLE10=Tired of the Road Joe
EXTD=YEAR: 1977
EXTT0=
EXTT1=
EXTT2=
EXTT3=
EXTT4=
EXTT5=
EXTT6=
EXTT7=
EXTT8=
EXTT9=
EXTT10=
PLAYORDER=
